# MagicaVoxel @ Ephtracy

# group
o 

# material
mtllib Boom1.mtl
usemtl palette

# normals
vn -1 0 0
vn 1 0 0
vn 0 0 1
vn 0 0 -1
vn 0 -1 0
vn 0 1 0

# texcoords
vt 0.228516 0.5
vt 0.537109 0.5
vt 0.904297 0.5

# verts
v -1.2 3.9 1.3
v -1.2 3.9 -1.3
v -1.2 5.4 1.3
v -1.2 5.4 -1.3
v -0.7 5.4 0.8
v -0.7 5.4 -0.8
v -0.7 6 0.8
v -0.7 6 -0.8
v -0.2 0 0.3
v -0.2 0 -0.2
v -0.2 3.9 0.3
v -0.2 3.9 -0.2
v 0.3 0 0.3
v 0.3 0 -0.2
v 0.3 3.9 0.3
v 0.3 3.9 -0.2
v 0.8 5.4 0.8
v 0.8 5.4 -0.8
v 0.8 6 0.8
v 0.8 6 -0.8
v 1.3 3.9 1.3
v 1.3 3.9 -1.3
v 1.3 5.4 1.3
v 1.3 5.4 -1.3
v -1.2 3.9 1.3
v -1.2 5.4 1.3
v 1.3 3.9 1.3
v 1.3 5.4 1.3
v -0.7 5.4 0.8
v -0.7 6 0.8
v 0.8 5.4 0.8
v 0.8 6 0.8
v -0.2 0 0.3
v -0.2 3.9 0.3
v 0.3 0 0.3
v 0.3 3.9 0.3
v -0.2 0 -0.2
v -0.2 3.9 -0.2
v 0.3 0 -0.2
v 0.3 3.9 -0.2
v -0.7 5.4 -0.8
v -0.7 6 -0.8
v 0.8 5.4 -0.8
v 0.8 6 -0.8
v -1.2 3.9 -1.3
v -1.2 5.4 -1.3
v 1.3 3.9 -1.3
v 1.3 5.4 -1.3
v -0.2 0 0.3
v 0.3 0 0.3
v -0.2 0 -0.2
v 0.3 0 -0.2
v -1.2 3.9 1.3
v 1.3 3.9 1.3
v -0.2 3.9 0.3
v 0.3 3.9 0.3
v -0.2 3.9 -0.2
v 0.3 3.9 -0.2
v -1.2 3.9 -1.3
v 1.3 3.9 -1.3
v -1.2 5.4 1.3
v 1.3 5.4 1.3
v -0.7 5.4 0.8
v 0.8 5.4 0.8
v -0.7 5.4 -0.8
v 0.8 5.4 -0.8
v -1.2 5.4 -1.3
v 1.3 5.4 -1.3
v -0.7 6 0.8
v 0.8 6 0.8
v -0.7 6 -0.8
v 0.8 6 -0.8

# faces
f 3/3/1 2/3/1 1/3/1
f 4/3/1 2/3/1 3/3/1
f 7/3/1 6/3/1 5/3/1
f 8/3/1 6/3/1 7/3/1
f 11/2/1 10/2/1 9/2/1
f 12/2/1 10/2/1 11/2/1
f 13/2/2 14/2/2 15/2/2
f 15/2/2 14/2/2 16/2/2
f 17/3/2 18/3/2 19/3/2
f 19/3/2 18/3/2 20/3/2
f 21/3/2 22/3/2 23/3/2
f 23/3/2 22/3/2 24/3/2
f 27/3/3 26/3/3 25/3/3
f 28/3/3 26/3/3 27/3/3
f 31/3/3 30/3/3 29/3/3
f 32/3/3 30/3/3 31/3/3
f 35/2/3 34/2/3 33/2/3
f 36/2/3 34/2/3 35/2/3
f 37/2/4 38/2/4 39/2/4
f 39/2/4 38/2/4 40/2/4
f 41/3/4 42/3/4 43/3/4
f 43/3/4 42/3/4 44/3/4
f 45/3/4 46/3/4 47/3/4
f 47/3/4 46/3/4 48/3/4
f 51/2/5 50/2/5 49/2/5
f 52/2/5 50/2/5 51/2/5
f 55/3/5 54/3/5 53/3/5
f 56/3/5 54/3/5 55/3/5
f 57/3/5 55/3/5 53/3/5
f 58/3/5 54/3/5 56/3/5
f 59/3/5 57/3/5 53/3/5
f 59/3/5 58/3/5 57/3/5
f 60/3/5 54/3/5 58/3/5
f 60/3/5 58/3/5 59/3/5
f 61/3/6 62/3/6 63/3/6
f 63/3/6 62/3/6 64/3/6
f 61/3/6 63/3/6 65/3/6
f 64/3/6 62/3/6 66/3/6
f 61/3/6 65/3/6 67/3/6
f 65/3/6 66/3/6 67/3/6
f 66/3/6 62/3/6 68/3/6
f 67/3/6 66/3/6 68/3/6
f 69/3/6 70/3/6 71/3/6
f 71/3/6 70/3/6 72/3/6
